<?xml version="1.0" standalone="no"?>
<!DOCTYPE svg PUBLIC "-//W3C//DTD SVG 20010904//EN"
 "http://www.w3.org/TR/2001/REC-SVG-20010904/DTD/svg10.dtd">
<svg version="1.0" xmlns="http://www.w3.org/2000/svg"
 width="2048.000000pt" height="2048.000000pt" viewBox="0 0 2048.000000 2048.000000"
 preserveAspectRatio="xMidYMid meet">

<g transform="translate(0.000000,2048.000000) scale(0.100000,-0.100000)"
fill="#000000" stroke="none">
<path d="M10000 19449 c-1920 -88 -3638 -1256 -4428 -3009 -566 -1257 -600
-2699 -95 -3985 67 -169 229 -507 320 -665 441 -765 1083 -1415 1838 -1862
642 -379 1321 -602 2100 -688 159 -18 681 -24 867 -11 444 33 840 112 1258
251 1158 384 2137 1172 2775 2230 107 178 294 556 368 745 555 1415 456 3010
-267 4330 -503 918 -1260 1651 -2186 2120 -556 280 -1128 451 -1745 520 -134
15 -516 36 -600 33 -22 0 -114 -4 -205 -9z"/>
<path d="M9795 7674 c-44 -2 -181 -8 -305 -14 -2847 -137 -5369 -1141 -7010
-2790 -825 -829 -1332 -1732 -1442 -2570 -8 -66 -12 -273 -13 -685 l0 -590
9215 0 9215 0 3 485 c3 524 -6 751 -38 930 -192 1069 -1035 2243 -2281 3177
-1491 1119 -3451 1819 -5624 2008 -377 33 -675 46 -1150 49 -269 2 -526 2
-570 0z"/>
</g>
</svg>
